<?xml version="1.0" encoding="iso-8859-1"?>
<!-- Generator: Adobe Illustrator 19.0.0, SVG Export Plug-In . SVG Version: 6.00 Build 0)  -->
<svg version="1.1" id="Capa_1" xmlns="http://www.w3.org/2000/svg" xmlns:xlink="http://www.w3.org/1999/xlink" x="0px" y="0px"
	 viewBox="0 0 60 60" style="enable-background:new 0 0 60 60;" xml:space="preserve">
<rect x="2" y="11" style="fill:#4482C3;" width="56" height="38"/>
<g>
	<path style="fill:#73C6F4;" d="M48,18h10v-2H48h-2H14h-2H2v2h10v24H2v2h10h2h32h2h10v-2H48V18z M14,42V30.847
		c0.293-0.174,0.5-0.481,0.5-0.847s-0.207-0.672-0.5-0.847V18h32v11.153c-0.293,0.174-0.5,0.481-0.5,0.847s0.207,0.672,0.5,0.847V42
		H14z"/>
	<path style="fill:#73C6F4;" d="M23.206,29h-0.971c-0.552,0-1,0.448-1,1s0.448,1,1,1h0.971c0.552,0,1-0.448,1-1S23.758,29,23.206,29
		z"/>
	<path style="fill:#73C6F4;" d="M18.353,29h-0.971c-0.552,0-1,0.448-1,1s0.448,1,1,1h0.971c0.552,0,1-0.448,1-1S18.905,29,18.353,29
		z"/>
	<path style="fill:#73C6F4;" d="M28.059,29h-0.97c-0.552,0-1,0.448-1,1s0.448,1,1,1h0.97c0.552,0,1-0.448,1-1S28.611,29,28.059,29z"
		/>
	<path style="fill:#73C6F4;" d="M32.912,29h-0.971c-0.552,0-1,0.448-1,1s0.448,1,1,1h0.971c0.552,0,1-0.448,1-1S33.464,29,32.912,29
		z"/>
	<path style="fill:#73C6F4;" d="M42.618,29h-0.971c-0.552,0-1,0.448-1,1s0.448,1,1,1h0.971c0.552,0,1-0.448,1-1S43.17,29,42.618,29z
		"/>
	<path style="fill:#73C6F4;" d="M37.765,29h-0.971c-0.552,0-1,0.448-1,1s0.448,1,1,1h0.971c0.552,0,1-0.448,1-1S38.317,29,37.765,29
		z"/>
</g>
<path style="fill:#38454F;" d="M58,60h-1c-0.553,0-1-0.448-1-1s0.447-1,1-1h1c0.553,0,1,0.448,1,1S58.553,60,58,60z M54,60h-1
	c-0.553,0-1-0.448-1-1s0.447-1,1-1h1c0.553,0,1,0.448,1,1S54.553,60,54,60z M50,60h-1c-0.553,0-1-0.448-1-1s0.447-1,1-1h1
	c0.553,0,1,0.448,1,1S50.553,60,50,60z M46,60h-1c-0.552,0-1-0.448-1-1s0.448-1,1-1h1c0.552,0,1,0.448,1,1S46.552,60,46,60z M42,60
	h-1c-0.552,0-1-0.448-1-1s0.448-1,1-1h1c0.552,0,1,0.448,1,1S42.552,60,42,60z M38,60h-1c-0.552,0-1-0.448-1-1s0.448-1,1-1h1
	c0.552,0,1,0.448,1,1S38.552,60,38,60z M34,60h-1c-0.552,0-1-0.448-1-1s0.448-1,1-1h1c0.552,0,1,0.448,1,1S34.552,60,34,60z M30,60
	h-1c-0.552,0-1-0.448-1-1s0.448-1,1-1h1c0.552,0,1,0.448,1,1S30.552,60,30,60z M26,60h-1c-0.552,0-1-0.448-1-1s0.448-1,1-1h1
	c0.552,0,1,0.448,1,1S26.552,60,26,60z M22,60h-1c-0.552,0-1-0.448-1-1s0.448-1,1-1h1c0.552,0,1,0.448,1,1S22.552,60,22,60z M18,60
	h-1c-0.552,0-1-0.448-1-1s0.448-1,1-1h1c0.552,0,1,0.448,1,1S18.552,60,18,60z M14,60h-1c-0.552,0-1-0.448-1-1s0.448-1,1-1h1
	c0.552,0,1,0.448,1,1S14.552,60,14,60z M10,60H9c-0.552,0-1-0.448-1-1s0.448-1,1-1h1c0.552,0,1,0.448,1,1S10.552,60,10,60z M6,60H5
	c-0.552,0-1-0.448-1-1s0.448-1,1-1h1c0.552,0,1,0.448,1,1S6.552,60,6,60z M2,60H1c-0.552,0-1-0.448-1-1s0.448-1,1-1h1
	c0.552,0,1,0.448,1,1S2.552,60,2,60z"/>
<path style="fill:#38454F;" d="M54,57h-1c-0.553,0-1-0.448-1-1s0.447-1,1-1h1c0.553,0,1,0.448,1,1S54.553,57,54,57z M50,57h-1
	c-0.553,0-1-0.448-1-1s0.447-1,1-1h1c0.553,0,1,0.448,1,1S50.553,57,50,57z M46,57h-1c-0.552,0-1-0.448-1-1s0.448-1,1-1h1
	c0.552,0,1,0.448,1,1S46.552,57,46,57z M42,57h-1c-0.552,0-1-0.448-1-1s0.448-1,1-1h1c0.552,0,1,0.448,1,1S42.552,57,42,57z M38,57
	h-1c-0.552,0-1-0.448-1-1s0.448-1,1-1h1c0.552,0,1,0.448,1,1S38.552,57,38,57z M34,57h-1c-0.552,0-1-0.448-1-1s0.448-1,1-1h1
	c0.552,0,1,0.448,1,1S34.552,57,34,57z M30,57h-1c-0.552,0-1-0.448-1-1s0.448-1,1-1h1c0.552,0,1,0.448,1,1S30.552,57,30,57z M26,57
	h-1c-0.552,0-1-0.448-1-1s0.448-1,1-1h1c0.552,0,1,0.448,1,1S26.552,57,26,57z M22,57h-1c-0.552,0-1-0.448-1-1s0.448-1,1-1h1
	c0.552,0,1,0.448,1,1S22.552,57,22,57z M18,57h-1c-0.552,0-1-0.448-1-1s0.448-1,1-1h1c0.552,0,1,0.448,1,1S18.552,57,18,57z M14,57
	h-1c-0.552,0-1-0.448-1-1s0.448-1,1-1h1c0.552,0,1,0.448,1,1S14.552,57,14,57z M10,57H9c-0.552,0-1-0.448-1-1s0.448-1,1-1h1
	c0.552,0,1,0.448,1,1S10.552,57,10,57z M6,57H5c-0.552,0-1-0.448-1-1s0.448-1,1-1h1c0.552,0,1,0.448,1,1S6.552,57,6,57z"/>
<path style="fill:#38454F;" d="M50,54h-1c-0.553,0-1-0.448-1-1s0.447-1,1-1h1c0.553,0,1,0.448,1,1S50.553,54,50,54z M46,54h-1
	c-0.552,0-1-0.448-1-1s0.448-1,1-1h1c0.552,0,1,0.448,1,1S46.552,54,46,54z M42,54h-1c-0.552,0-1-0.448-1-1s0.448-1,1-1h1
	c0.552,0,1,0.448,1,1S42.552,54,42,54z M38,54h-1c-0.552,0-1-0.448-1-1s0.448-1,1-1h1c0.552,0,1,0.448,1,1S38.552,54,38,54z M34,54
	h-1c-0.552,0-1-0.448-1-1s0.448-1,1-1h1c0.552,0,1,0.448,1,1S34.552,54,34,54z M30,54h-1c-0.552,0-1-0.448-1-1s0.448-1,1-1h1
	c0.552,0,1,0.448,1,1S30.552,54,30,54z M26,54h-1c-0.552,0-1-0.448-1-1s0.448-1,1-1h1c0.552,0,1,0.448,1,1S26.552,54,26,54z M22,54
	h-1c-0.552,0-1-0.448-1-1s0.448-1,1-1h1c0.552,0,1,0.448,1,1S22.552,54,22,54z M18,54h-1c-0.552,0-1-0.448-1-1s0.448-1,1-1h1
	c0.552,0,1,0.448,1,1S18.552,54,18,54z M14,54h-1c-0.552,0-1-0.448-1-1s0.448-1,1-1h1c0.552,0,1,0.448,1,1S14.552,54,14,54z M10,54
	H9c-0.552,0-1-0.448-1-1s0.448-1,1-1h1c0.552,0,1,0.448,1,1S10.552,54,10,54z"/>
<path style="fill:#38454F;" d="M59,2h-1c-0.553,0-1-0.448-1-1s0.447-1,1-1h1c0.553,0,1,0.448,1,1S59.553,2,59,2z M55,2h-1
	c-0.553,0-1-0.448-1-1s0.447-1,1-1h1c0.553,0,1,0.448,1,1S55.553,2,55,2z M51,2h-1c-0.553,0-1-0.448-1-1s0.447-1,1-1h1
	c0.553,0,1,0.448,1,1S51.553,2,51,2z M47,2h-1c-0.552,0-1-0.448-1-1s0.448-1,1-1h1c0.553,0,1,0.448,1,1S47.553,2,47,2z M43,2h-1
	c-0.552,0-1-0.448-1-1s0.448-1,1-1h1c0.552,0,1,0.448,1,1S43.552,2,43,2z M39,2h-1c-0.552,0-1-0.448-1-1s0.448-1,1-1h1
	c0.552,0,1,0.448,1,1S39.552,2,39,2z M35,2h-1c-0.552,0-1-0.448-1-1s0.448-1,1-1h1c0.552,0,1,0.448,1,1S35.552,2,35,2z M31,2h-1
	c-0.552,0-1-0.448-1-1s0.448-1,1-1h1c0.552,0,1,0.448,1,1S31.552,2,31,2z M27,2h-1c-0.552,0-1-0.448-1-1s0.448-1,1-1h1
	c0.552,0,1,0.448,1,1S27.552,2,27,2z M23,2h-1c-0.552,0-1-0.448-1-1s0.448-1,1-1h1c0.552,0,1,0.448,1,1S23.552,2,23,2z M19,2h-1
	c-0.552,0-1-0.448-1-1s0.448-1,1-1h1c0.552,0,1,0.448,1,1S19.552,2,19,2z M15,2h-1c-0.552,0-1-0.448-1-1s0.448-1,1-1h1
	c0.552,0,1,0.448,1,1S15.552,2,15,2z M11,2h-1C9.448,2,9,1.552,9,1s0.448-1,1-1h1c0.552,0,1,0.448,1,1S11.552,2,11,2z M7,2H6
	C5.448,2,5,1.552,5,1s0.448-1,1-1h1c0.552,0,1,0.448,1,1S7.552,2,7,2z M3,2H2C1.448,2,1,1.552,1,1s0.448-1,1-1h1
	c0.552,0,1,0.448,1,1S3.552,2,3,2z"/>
<path style="fill:#38454F;" d="M55,5h-1c-0.553,0-1-0.448-1-1s0.447-1,1-1h1c0.553,0,1,0.448,1,1S55.553,5,55,5z M51,5h-1
	c-0.553,0-1-0.448-1-1s0.447-1,1-1h1c0.553,0,1,0.448,1,1S51.553,5,51,5z M47,5h-1c-0.552,0-1-0.448-1-1s0.448-1,1-1h1
	c0.553,0,1,0.448,1,1S47.553,5,47,5z M43,5h-1c-0.552,0-1-0.448-1-1s0.448-1,1-1h1c0.552,0,1,0.448,1,1S43.552,5,43,5z M39,5h-1
	c-0.552,0-1-0.448-1-1s0.448-1,1-1h1c0.552,0,1,0.448,1,1S39.552,5,39,5z M35,5h-1c-0.552,0-1-0.448-1-1s0.448-1,1-1h1
	c0.552,0,1,0.448,1,1S35.552,5,35,5z M31,5h-1c-0.552,0-1-0.448-1-1s0.448-1,1-1h1c0.552,0,1,0.448,1,1S31.552,5,31,5z M27,5h-1
	c-0.552,0-1-0.448-1-1s0.448-1,1-1h1c0.552,0,1,0.448,1,1S27.552,5,27,5z M23,5h-1c-0.552,0-1-0.448-1-1s0.448-1,1-1h1
	c0.552,0,1,0.448,1,1S23.552,5,23,5z M19,5h-1c-0.552,0-1-0.448-1-1s0.448-1,1-1h1c0.552,0,1,0.448,1,1S19.552,5,19,5z M15,5h-1
	c-0.552,0-1-0.448-1-1s0.448-1,1-1h1c0.552,0,1,0.448,1,1S15.552,5,15,5z M11,5h-1C9.448,5,9,4.552,9,4s0.448-1,1-1h1
	c0.552,0,1,0.448,1,1S11.552,5,11,5z M7,5H6C5.448,5,5,4.552,5,4s0.448-1,1-1h1c0.552,0,1,0.448,1,1S7.552,5,7,5z"/>
<path style="fill:#38454F;" d="M51,8h-1c-0.553,0-1-0.448-1-1s0.447-1,1-1h1c0.553,0,1,0.448,1,1S51.553,8,51,8z M47,8h-1
	c-0.552,0-1-0.448-1-1s0.448-1,1-1h1c0.553,0,1,0.448,1,1S47.553,8,47,8z M43,8h-1c-0.552,0-1-0.448-1-1s0.448-1,1-1h1
	c0.552,0,1,0.448,1,1S43.552,8,43,8z M39,8h-1c-0.552,0-1-0.448-1-1s0.448-1,1-1h1c0.552,0,1,0.448,1,1S39.552,8,39,8z M35,8h-1
	c-0.552,0-1-0.448-1-1s0.448-1,1-1h1c0.552,0,1,0.448,1,1S35.552,8,35,8z M31,8h-1c-0.552,0-1-0.448-1-1s0.448-1,1-1h1
	c0.552,0,1,0.448,1,1S31.552,8,31,8z M27,8h-1c-0.552,0-1-0.448-1-1s0.448-1,1-1h1c0.552,0,1,0.448,1,1S27.552,8,27,8z M23,8h-1
	c-0.552,0-1-0.448-1-1s0.448-1,1-1h1c0.552,0,1,0.448,1,1S23.552,8,23,8z M19,8h-1c-0.552,0-1-0.448-1-1s0.448-1,1-1h1
	c0.552,0,1,0.448,1,1S19.552,8,19,8z M15,8h-1c-0.552,0-1-0.448-1-1s0.448-1,1-1h1c0.552,0,1,0.448,1,1S15.552,8,15,8z M11,8h-1
	C9.448,8,9,7.552,9,7s0.448-1,1-1h1c0.552,0,1,0.448,1,1S11.552,8,11,8z"/>
<line style="fill:none;stroke:#ECF0F1;stroke-width:2;stroke-miterlimit:10;" x1="30" y1="11" x2="30" y2="49"/>
<g>
</g>
<g>
</g>
<g>
</g>
<g>
</g>
<g>
</g>
<g>
</g>
<g>
</g>
<g>
</g>
<g>
</g>
<g>
</g>
<g>
</g>
<g>
</g>
<g>
</g>
<g>
</g>
<g>
</g>
</svg>
